<?xml version="1.0" encoding="utf-8"?>
<!-- Svg Vector Icons : http://www.onlinewebfonts.com/icon -->
<!DOCTYPE svg PUBLIC "-//W3C//DTD SVG 1.1//EN" "http://www.w3.org/Graphics/SVG/1.1/DTD/svg11.dtd">
<svg version="1.1" xmlns="http://www.w3.org/2000/svg" xmlns:xlink="http://www.w3.org/1999/xlink" x="0px" y="0px" viewBox="0 0 256 256" enable-background="new 0 0 256 256" xml:space="preserve">
<metadata> Svg Vector Icons : http://www.onlinewebfonts.com/icon </metadata>
<g><g><g><path fill="#000000" d="M117,13.9c-1.8,2.1-26.5,32.2-55.1,66.8L10,143.8l7.4,50.9c4.1,28,7.5,51,7.5,51.1C25,246,156.6,203.7,235,178.3l11-3.6l-0.1-54.8l-0.1-54.9l-59.9-26.2c-32.9-14.4-61.2-26.7-62.8-27.4l-2.9-1.3L117,13.9z M178.3,52.6C200.3,65,218.1,75.2,218,75.3c-0.3,0.3-185.5,59.6-185.7,59.5c-0.1,0,23.1-24,51.5-53.1l51.7-53l1.5,0.8C137.8,29.9,156.4,40.3,178.3,52.6z M225.2,97.6c0,0.1,0.5,3.1,1.2,6.8c0.6,3.7,1.2,7.3,1.2,8.1c0,1.5-4,8.9-7.2,13.3c-3,4.1-8.7,9.8-12.1,12.3c-11.4,8.2-24.3,8.9-39.8,2c-6.7-3-11-4.1-17.3-4.4c-12.2-0.7-27.2,2.8-41.5,9.7c-7.8,3.8-13.2,7.3-19.7,12.4c-4.9,3.9-9.7,6.6-14.6,8.2c-4.6,1.5-14.7,1.8-20.9,0.7c-4.8-0.9-12.1-3.1-16.4-5l-2.7-1.2v-7.3v-7.4l45-11.4c24.7-6.3,67.3-17.2,94.5-24.2C224.9,97.6,225.2,97.5,225.2,97.6z M234.2,153.6c1.1,6.9,1.9,12.7,1.8,12.8c-0.1,0.1-45,12-99.8,26.5c-54.8,14.5-100,26.5-100.5,26.6c-0.8,0.3-0.9-0.2-0.5-17c0.2-9.5,0.4-17.4,0.5-17.4c0.1-0.1,2.5,0.6,5.4,1.5c9.3,2.9,12.1,3.3,22.4,3.3c10.4,0,13.8-0.6,20.5-3.7c4.8-2.2,7.1-3.9,13.7-10.3c16.7-16,26.9-23.1,39.3-27.2c9.3-3.1,17.2-3,25.7,0.3c8.3,3.2,13.9,5,19.5,6.3c4.9,1.1,6.2,1.2,14.2,1.2c7.7,0,9.3-0.1,12.7-1c8-2.2,16.2-7.1,21.1-12.7c1-1.2,1.9-2,2-1.9C232.2,141,233.1,146.7,234.2,153.6z"/></g></g></g>
</svg>