<?xml version="1.0" encoding="utf-8"?>
<!-- Svg Vector Icons : http://www.onlinewebfonts.com/icon -->
<!DOCTYPE svg PUBLIC "-//W3C//DTD SVG 1.1//EN" "http://www.w3.org/Graphics/SVG/1.1/DTD/svg11.dtd">
<svg version="1.1" xmlns="http://www.w3.org/2000/svg" xmlns:xlink="http://www.w3.org/1999/xlink" x="0px" y="0px" viewBox="0 0 256 256" enable-background="new 0 0 256 256" xml:space="preserve">
<metadata> Svg Vector Icons : http://www.onlinewebfonts.com/icon </metadata>
<g> <path fill="#040000" d="M152.1,246h-48c-15.2,0-27.6-12.4-27.6-27.6V37.6c0-15.2,12.4-27.6,27.6-27.6h48 c15.2,0,27.6,12.4,27.6,27.6v180.8C179.7,233.6,167.3,246,152.1,246z M104.1,12C90,12,78.6,23.5,78.5,37.6v180.8 c0,14.1,11.4,25.5,25.5,25.5h48c14.1,0,25.5-11.4,25.5-25.5V37.6c0-14.1-11.4-25.5-25.5-25.5H104.1z"/> <path fill="#040000" d="M97.4,61.7H79.1c-0.6,0-1-0.5-1-1c0-0.6,0.5-1,1-1h18.3c0.6,0,1,0.5,1,1C98.4,61.3,98,61.7,97.4,61.7z  M96.2,82.9H79.1c-0.6,0-1-0.5-1-1s0.5-1,1-1h17.1c0.6,0,1,0.5,1,1S96.8,82.9,96.2,82.9z M96.2,104H79.1c-0.6,0-1-0.5-1-1 c0-0.6,0.5-1,1-1h17.1c0.6,0,1,0.5,1,1C97.2,103.6,96.8,104,96.2,104z M113.4,209.9H79.1c-0.6,0-1-0.5-1-1c0-0.6,0.5-1,1-1h34.3 c0.6,0,1,0.5,1,1C114.4,209.4,113.9,209.9,113.4,209.9L113.4,209.9z"/> <path fill="#f5ea2b" d="M79.1,210.9c-1,0-1.8-0.9-1.8-2c0-1.1,0.8-2,1.8-2h34.3c1,0,1.8,0.9,1.8,2c0,1.1-0.8,2-1.8,2H79.1z"/> <path fill="#040000" d="M113.4,207.8c0.4,0,0.8,0.5,0.8,1c0,0.6-0.3,1-0.8,1H79.1c-0.4,0-0.8-0.5-0.8-1c0-0.6,0.3-1,0.8-1H113.4  M113.4,205.8H79.1c-1.6,0-2.8,1.3-2.8,3s1.2,3,2.8,3h34.3c1.6,0,2.8-1.3,2.8-3S114.9,205.8,113.4,205.8z M113.4,125.2H79.1 c-0.6,0-1-0.5-1-1c0-0.6,0.5-1,1-1h34.3c0.6,0,1,0.5,1,1C114.4,124.8,113.9,125.2,113.4,125.2L113.4,125.2z"/> <path fill="#f5ea2b" d="M79.1,126.6c-1,0-1.8-1-1.8-2.4c0-1.4,0.7-2.4,1.8-2.4h34.3c1,0,1.8,1,1.8,2.4c0,1.4-0.7,2.4-1.8,2.4H79.1z "/> <path fill="#040000" d="M113.4,122.8c0.4,0,0.8,0.6,0.8,1.4c0,0.8-0.3,1.4-0.8,1.4H79.1c-0.4,0-0.8-0.6-0.8-1.4 c0-0.8,0.3-1.4,0.8-1.4H113.4 M113.4,120.7H79.1c-1.6,0-2.8,1.5-2.8,3.5c0,2,1.2,3.5,2.8,3.5h34.3c1.6,0,2.8-1.5,2.8-3.5 C116.2,122.2,115,120.7,113.4,120.7z M113.4,40.5H79.1c-0.6,0-1-0.5-1-1s0.5-1,1-1h34.3c0.6,0,1,0.5,1,1S113.9,40.5,113.4,40.5 L113.4,40.5z"/> <path fill="#f5ea2b" d="M79.1,41.6c-1,0-1.8-0.9-1.8-2c0-1.1,0.8-2,1.8-2h34.3c1,0,1.8,0.9,1.8,2c0,1.1-0.8,2-1.8,2H79.1z"/> <path fill="#040000" d="M113.4,38.5c0.4,0,0.8,0.5,0.8,1c0,0.6-0.3,1-0.8,1H79.1c-0.4,0-0.8-0.5-0.8-1c0-0.6,0.3-1,0.8-1H113.4  M113.4,36.5H79.1c-1.6,0-2.8,1.3-2.8,3s1.2,3,2.8,3h34.3c1.6,0,2.8-1.3,2.8-3S114.9,36.5,113.4,36.5z M97.4,146.4H79.1 c-0.6,0-1-0.5-1-1c0-0.6,0.5-1,1-1h18.3c0.6,0,1,0.5,1,1C98.4,145.9,98,146.4,97.4,146.4z M96.2,167.5H79.1c-0.6,0-1-0.5-1-1 c0-0.6,0.5-1,1-1h17.1c0.6,0,1,0.5,1,1C97.2,167.1,96.8,167.5,96.2,167.5z M96.2,188.7H79.1c-0.6,0-1-0.5-1-1c0-0.6,0.5-1,1-1h17.1 c0.6,0,1,0.5,1,1C97.2,188.2,96.8,188.7,96.2,188.7z"/></g>
</svg>